<?xml version="1.0" encoding="utf-8" ?>
<svg baseProfile="full" height="100%" version="1.1" viewBox="0,0,200.0,173.20508075688772" width="100%" xmlns="http://www.w3.org/2000/svg" xmlns:ev="http://www.w3.org/2001/xml-events" xmlns:xlink="http://www.w3.org/1999/xlink"><defs /><path d="M 13.313395609140159,7.658207427073258 C 10.905652607754751,8.447874217105351 8.5363070659909,9.504047358083554 6.249999999999982,10.824047358083561" fill="none" id="fa1u98bq" stroke="black" stroke-width="1" /><path d="M 12.504055122985449,-0.0036114155691890915 C 12.49477999677322,4.320323594584615 10.259697619521933,8.509047358083556 6.249999999999982,10.824047358083561" fill="none" id="2tcuydlt" stroke="black" stroke-width="1" /><path d="M 38.31339560914016,50.95947761629519 C 35.90565260775475,51.74914440632728 33.5363070659909,52.805317547305485 31.249999999999982,54.12531754730549" fill="none" id="w6yjmfuy" stroke="black" stroke-width="1" /><path d="M 112.50405512298545,-0.0036114155691890915 C 112.49477999677322,4.320323594584615 110.25969761952193,8.509047358083556 106.25,10.82" fill="none" id="wmp9nnux" stroke="black" stroke-width="1" /><path d="M 186.71,7.7 C 187.23000000000002,5.220000000000001 187.5,2.6400000000000006 187.5,0.0" fill="none" id="e7y3za29" stroke="black" stroke-width="1" /><path d="M 193.75,10.83 C 190.01,8.66 187.5,4.63 187.5,0.0" fill="none" id="4s5k05sd" stroke="black" stroke-width="1" /><path d="M 149.97660439085982,71.24306276214868 C 151.86434739224524,72.93339597211659 153.9636929340091,74.45722283113838 156.25,75.77722283113837" fill="none" id="lt4hwnrj" stroke="black" stroke-width="1" /><path d="M 68.74594487701454,119.07615179401306 C 79.95046898546201,112.58934676355166 87.49616117927854,100.47982450558555 87.49594487701452,86.60019915209661" fill="none" id="nn45r77e" stroke="black" stroke-width="1" /><path d="M 118.75,140.7338105676658 C 115.00999999999999,138.5638105676658 112.5,134.5338105676658 112.50350511491857,129.90583424670757" fill="none" id="f9zihz86" stroke="black" stroke-width="1" /><path d="M 106.25,162.3838105676658 C 102.50999999999999,160.23381056766578 97.75999999999999,160.0638105676658 93.75,162.3838105676658" fill="none" id="x4cv3hw5" stroke="black" stroke-width="1" /><path d="M 118.75,140.7338105676658 C 107.53,134.2738105676658 93.27,133.7938105676658 81.25,140.7338105676658" fill="none" id="oywvhjz1" stroke="black" stroke-width="1" /><path d="M 38.31339560914019,35.64179257292675 C 35.905652607754774,34.85212578289465 33.536307065990925,33.79595264191645 31.250000000000007,32.47595264191645 C 27.50477999677323,30.318406216193452 22.759697619521944,30.159682452694515 18.749999999999993,32.474682452694516" fill="none" id="n0i4kt1f" stroke="black" stroke-width="1" /><path d="M 62.50405512298545,-0.0036114155691890915 C 62.51953101453798,12.943193614892213 69.23383882072146,25.532715872858308 81.25,32.47 C 93.27,39.41 107.53,38.93 118.75,32.47" fill="none" id="nfzoy4ej" stroke="black" stroke-width="1" /><path d="M 63.31339560914016,7.658207427073258 C 60.90565260775475,8.447874217105351 58.5363070659909,9.504047358083554 56.25405512298548,10.82765877365274 C 52.50477999677324,12.981593783806542 47.75969761952196,13.140317547305482 43.75,10.825317547305485 C 39.73932617813865,8.509261809866167 37.511550496782,4.310641141890088 37.50350511491854,-0.003293868263718025" fill="none" id="wbnbb024" stroke="black" stroke-width="1" /><path d="M 63.31339560914019,78.94306276214868 C 60.905652607754774,78.15339597211658 58.536307065990925,77.09722283113838 56.25000000000001,75.77722283113837 C 52.50477999677323,73.61967640541539 47.759697619521944,73.46095264191645 43.74999999999999,75.77595264191645" fill="none" id="m6wm9mxe" stroke="black" stroke-width="1" /><path d="M 12.504055122985449,-0.0036114155691890915 C 12.51953101453798,12.943193614892213 19.233838820721456,25.532715872858308 31.250000000000007,32.47595264191645 C 35.25969761952196,34.79095264191645 37.49477999677325,38.97967640541539 37.50405512298548,43.30361141556919 C 37.49477999677322,47.621593783806546 35.25969761952193,51.81031754730549 31.249999999999982,54.12531754730549" fill="none" id="015zplq4" stroke="black" stroke-width="1" /><path d="M 113.31339560914016,7.658207427073258 C 110.90565260775475,8.447874217105351 108.5363070659909,9.504047358083554 106.25,10.82 C 102.50999999999999,12.969999999999999 97.75999999999999,13.14 93.75,10.82 C 89.73932617813864,8.509261809866167 87.51155049678201,4.310641141890088 87.50350511491854,-0.003293868263718025" fill="none" id="regz551j" stroke="black" stroke-width="1" /><path d="M 137.50350511491854,-0.003293868263718025 C 137.511550496782,4.310641141890088 139.73932617813864,8.509261809866167 143.75,10.825317547305485 C 147.75969761952194,13.140317547305482 152.50477999677324,12.981593783806542 156.25405512298548,10.82765877365274 C 159.99,8.66 162.5,4.63 162.5,0.0" fill="none" id="70woo072" stroke="black" stroke-width="1" /><path d="M 193.75,10.83 C 182.53,4.37 168.27,3.8899999999999997 156.25405512298548,10.82765877365274 C 144.23383882072147,17.767284127141693 137.519531014538,30.35680638510779 137.50405512298548,43.30361141556919" fill="none" id="w0xjtuu6" stroke="black" stroke-width="1" /><path d="M 181.25,32.48 C 177.51,30.33 172.76,30.159999999999997 168.75350511491857,32.47797632095822 C 164.73932617813867,34.790738190133816 162.51155049678204,38.9893588581099 162.50350511491857,43.3032938682637 C 162.50522000322675,47.62286397302847 164.74030238047806,51.811587736527414 168.75,54.12658773652741" fill="none" id="diq4iqep" stroke="black" stroke-width="1" /><path d="M 74.97660439085982,114.5443329513706 C 76.86434739224524,116.23466616133852 78.96369293400909,117.75849302036032 81.25,119.07849302036031 C 83.53630706599093,120.39849302036032 85.90565260775477,121.45466616133851 88.31339560914019,122.24433295137061" fill="none" id="2pru4lr1" stroke="black" stroke-width="1" /><path d="M 56.24649488508144,97.42583424670758 C 59.97844950321798,95.26189923655377 62.50067382186134,91.23327856857769 62.495394868947635,86.59988160479112 C 62.49477999677325,82.28094659463733 60.25969761952196,78.09222283113837 56.25000000000001,75.77722283113837 C 44.23383882072146,68.83398606208024 37.51953101453798,56.24446380411415 37.50405512298548,43.30361141556919 C 37.519531014538,30.35680638510779 44.23383882072147,17.767284127141693 56.25405512298548,10.82765877365274 C 60.25969761952193,8.509047358083556 62.49477999677322,4.320323594584615 62.50405512298545,-0.0036114155691890915" fill="none" id="xemkj6sg" stroke="black" stroke-width="1" /><path d="M 143.75,97.43254037844386 C 132.53,90.97254037844387 118.27,90.49254037844386 106.25405512298548,97.4301991520966 C 94.23383882072147,104.36982450558556 87.519531014538,116.95934676355165 87.50405512298548,129.90615179401306" fill="none" id="utk3p13r" stroke="black" stroke-width="1" /><path d="M 136.71,94.30254037844387 C 137.23000000000002,91.82254037844386 137.5,89.24254037844386 137.5,86.60127018922194 C 137.5,83.96127018922192 137.23000000000002,81.38127018922194 136.71,78.90127018922192" fill="none" id="adnfxbgp" stroke="black" stroke-width="1" /><path d="M 143.75,97.43254037844386 C 140.01,95.26254037844386 137.5,91.23254037844386 137.5,86.60127018922194 C 137.5,81.97127018922193 140.01,77.94127018922194 143.75,75.77127018922192 C 147.49522000322676,73.62094659463733 152.24030238047806,73.46222283113838 156.25,75.77722283113837" fill="none" id="o47t5np2" stroke="black" stroke-width="1" /><path d="M 81.25,140.7338105676658 C 84.99,138.5638105676658 87.5,134.5338105676658 87.50405512298548,129.90615179401306 C 87.49477999677325,125.58221678385925 85.25969761952196,121.39349302036031 81.25,119.07849302036031 C 77.24030238047806,116.76349302036031 72.49522000322676,116.92221678385926 68.74594487701454,119.07615179401306" fill="none" id="xfly80xx" stroke="black" stroke-width="1" /><path d="M 111.71000000000001,137.6038105676658 C 112.23,135.1238105676658 112.5,132.5438105676658 112.50350511491857,129.90583424670757 C 112.51155049678204,125.59189923655376 114.73932617813867,121.39327856857767 118.75350511491857,119.08051669940208 C 122.75999999999999,116.76254037844386 127.50999999999999,116.93254037844386 131.25,119.08254037844387" fill="none" id="kptlezg2" stroke="black" stroke-width="1" /><path d="M 138.31339560914017,35.64179257292675 C 135.90565260775477,34.85212578289465 133.5363070659909,33.79595264191645 131.25,32.47595264191645 C 127.50477999677324,30.318406216193452 122.75969761952194,30.159682452694515 118.75,32.47 C 115.00999999999999,34.64 112.5,38.669999999999995 112.49594487701452,43.298928962874676 C 112.49616117927854,57.17855431636363 104.95046898546201,69.28807657432972 93.74594487701454,75.77488160479112" fill="none" id="915rdqub" stroke="black" stroke-width="1" /><path d="M 112.50405512298545,-0.0036114155691890915 C 112.51953101453798,12.943193614892213 119.23383882072146,25.532715872858308 131.25,32.47595264191645 C 135.25969761952194,34.79095264191645 137.49477999677325,38.97967640541539 137.50405512298548,43.30361141556919 C 137.50067382186134,47.932008379355764 134.97844950321797,51.96062904733184 131.25,54.12127018922193 C 127.50999999999999,56.27127018922193 122.75999999999999,56.44127018922193 118.75,54.12658773652741 C 114.74030238047806,51.811587736527414 112.50522000322675,47.62286397302847 112.49594487701452,43.298928962874676 C 112.5,40.66 112.23,38.08 111.71000000000001,35.599999999999994" fill="none" id="1jg78zoh" stroke="black" stroke-width="1" /><path d="M 87.5,43.3 C 87.5,38.669999999999995 84.99,34.64 81.25,32.47 C 77.50477999677324,30.318406216193452 72.75969761952194,30.159682452694515 68.75350511491857,32.47797632095822 C 64.73932617813867,34.790738190133816 62.51155049678203,38.9893588581099 62.503505114918575,43.3032938682637 C 62.511550496782,47.61191133111202 64.73932617813864,51.8105319990881 68.75,54.12658773652741 C 72.75969761952196,56.44158773652741 77.50477999677324,56.28286397302847 81.24649488508143,54.12456405748565 C 84.97844950321797,51.96062904733184 87.50067382186134,47.932008379355764 74.99594487701454,64.94956405748565 C 62.519531014538,73.65807657432973 69.23383882072147,61.068554316363624 81.25405512298548,54.12892896287467" fill="none" id="2ne126n0" stroke="black" stroke-width="1" /><path d="M 99.97660439085982,71.24306276214868 C 101.86434739224524,72.93339597211659 103.96369293400909,74.45722283113838 106.25,75.77722283113837 C 109.99,77.94127018922194 112.5,81.97127018922193 112.5,86.60127018922194 C 112.5,91.23254037844386 109.99,95.26254037844386 106.25405512298548,97.4301991520966 C 102.50477999677324,99.58413416225041 97.75969761952196,99.74285792574935 93.75,97.42785792574935 C 89.74030238047806,95.11285792574935 87.50522000322675,90.92413416225041 87.49594487701452,86.60019915209661 C 87.51155049678204,82.29062904733183 89.73932617813867,78.09200837935575 93.74594487701454,75.77488160479112 C 97.49522000322676,73.62094659463733 102.24030238047806,73.46222283113838 106.25,75.77722283113837 C 118.27,82.71127018922192 132.53,82.23127018922193 143.75,75.77127018922192 C 154.950468985462,69.28807657432972 162.49616117927854,57.17855431636363 162.50350511491857,43.3032938682637" fill="none" id="nwfhyoi9" stroke="black" stroke-width="1" /></svg>