<?xml version="1.0" encoding="utf-8" ?>
<svg baseProfile="full" height="100%" version="1.1" viewBox="0,0,200.0,173.20508075688772" width="100%" xmlns="http://www.w3.org/2000/svg" xmlns:ev="http://www.w3.org/2001/xml-events" xmlns:xlink="http://www.w3.org/1999/xlink"><defs /><path d="M 6.25,10.82 C 9.99,8.66 12.5,4.63 12.5,0.0" fill="none" id="u1a1ru0a-p1" stroke="black" stroke-width="1" /><path d="M 36.71,7.7 C 37.230000000000004,5.220000000000001 37.5,2.6400000000000006 37.5,0.0" fill="none" id="u1a1ru0a-p2" stroke="black" stroke-width="1" /><path d="M 43.75,10.82 C 40.01,8.66 37.5,4.63 37.5,0.0" fill="none" id="u1a1ru0a-p3" stroke="black" stroke-width="1" /><path d="M 31.25,32.48 C 27.509999999999998,30.33 22.759999999999998,30.159999999999997 18.75,32.48" fill="none" id="u1a1ru0a-p4" stroke="black" stroke-width="1" /><path d="M 43.75,10.83 C 32.53,4.37 18.27,3.8899999999999997 6.25,10.83" fill="none" id="u1a1ru0a-p5" stroke="black" stroke-width="1" /><path d="M 81.24539486894761,32.47734122634725 C 77.50477999677324,30.318406216193452 72.75969761952194,30.159682452694515 68.75,32.474682452694516" fill="none" id="ub63qpyn-p1" stroke="black" stroke-width="1" /><path d="M 63.31339560914016,7.658207427073258 C 60.90565260775475,8.447874217105351 58.5363070659909,9.504047358083554 56.249999999999986,10.824047358083561" fill="none" id="ub63qpyn-p2" stroke="black" stroke-width="1" /><path d="M 62.495394868947606,0.0013885844308134665 C 62.49477999677322,4.320323594584615 60.25969761952193,8.509047358083556 56.249999999999986,10.824047358083561" fill="none" id="ub63qpyn-p3" stroke="black" stroke-width="1" /><path d="M 87.50350511491854,-0.003293868263718025 C 87.51155049678201,4.310641141890088 89.73932617813864,8.509261809866167 93.75350511491855,10.822023679041763" fill="none" id="ub63qpyn-p4" stroke="black" stroke-width="1" /><path d="M 62.50405512298545,-0.0036114155691890915 C 62.51953101453798,12.943193614892213 69.23383882072146,25.532715872858308 81.25405512298546,32.472341226347254" fill="none" id="ub63qpyn-p5" stroke="black" stroke-width="1" /><path d="M 62.50460513105237,43.30392896287467 C 62.50522000322676,47.62286397302847 64.74030238047806,51.811587736527414 68.75,54.12658773652741" fill="none" id="tfsuxc1e-p1" stroke="black" stroke-width="1" /><path d="M 49.976604390859826,71.24306276214868 C 51.864347392245236,72.93339597211659 53.96369293400909,74.45722283113838 56.25000000000001,75.77722283113837" fill="none" id="tfsuxc1e-p2" stroke="black" stroke-width="1" /><path d="M 43.75460513105238,75.77988160479113 C 47.49522000322677,73.62094659463733 52.240302380478056,73.46222283113838 56.25000000000001,75.77722283113837" fill="none" id="tfsuxc1e-p3" stroke="black" stroke-width="1" /><path d="M 31.24649488508144,54.12456405748565 C 34.97844950321798,51.96062904733184 37.50067382186134,47.932008379355764 37.49649488508143,43.29924651018017" fill="none" id="tfsuxc1e-p4" stroke="black" stroke-width="1" /><path d="M 43.74594487701454,75.77488160479112 C 54.95046898546201,69.28807657432972 62.49616117927854,57.17855431636363 62.49594487701453,43.298928962874676" fill="none" id="tfsuxc1e-p5" stroke="black" stroke-width="1" /><path d="M 31.25,32.48 C 34.99,34.64 37.5,38.669999999999995 37.5,43.3" fill="none" id="rppsi17u-p1" stroke="black" stroke-width="1" /><path d="M 61.71,35.599999999999994 C 62.230000000000004,38.08 62.5,40.66 62.5,43.3" fill="none" id="rppsi17u-p2" stroke="black" stroke-width="1" /><path d="M 68.75,32.48 C 65.00999999999999,34.64 62.5,38.669999999999995 62.5,43.3" fill="none" id="rppsi17u-p3" stroke="black" stroke-width="1" /><path d="M 56.25,10.82 C 52.51,12.969999999999999 47.76,13.14 43.75,10.82" fill="none" id="rppsi17u-p4" stroke="black" stroke-width="1" /><path d="M 68.75,32.47 C 57.53,38.93 43.269999999999996,39.41 31.25,32.47" fill="none" id="rppsi17u-p5" stroke="black" stroke-width="1" /><path d="M 106.25,10.82 C 109.99,8.66 112.5,4.63 112.5,0.0" fill="none" id="8ihn6t2z-p1" stroke="black" stroke-width="1" /><path d="M 136.71,7.7 C 137.23000000000002,5.220000000000001 137.5,2.6400000000000006 137.5,0.0" fill="none" id="8ihn6t2z-p2" stroke="black" stroke-width="1" /><path d="M 143.75,10.82 C 140.01,8.66 137.5,4.63 137.5,0.0" fill="none" id="8ihn6t2z-p3" stroke="black" stroke-width="1" /><path d="M 131.25,32.48 C 127.50999999999999,30.33 122.75999999999999,30.159999999999997 118.75,32.48" fill="none" id="8ihn6t2z-p4" stroke="black" stroke-width="1" /><path d="M 143.75,10.83 C 132.53,4.37 118.27,3.8899999999999997 106.25,10.83" fill="none" id="8ihn6t2z-p5" stroke="black" stroke-width="1" /><path d="M 181.2453948689476,32.47734122634725 C 177.50477999677324,30.318406216193452 172.75969761952194,30.159682452694515 168.75,32.474682452694516" fill="none" id="x2jsru6q-p1" stroke="black" stroke-width="1" /><path d="M 163.31339560914017,7.658207427073258 C 160.90565260775475,8.447874217105351 158.5363070659909,9.504047358083554 156.24999999999997,10.824047358083561" fill="none" id="x2jsru6q-p2" stroke="black" stroke-width="1" /><path d="M 162.4953948689476,0.0013885844308134665 C 162.49477999677322,4.320323594584615 160.25969761952194,8.509047358083556 156.24999999999997,10.824047358083561" fill="none" id="x2jsru6q-p3" stroke="black" stroke-width="1" /><path d="M 187.50350511491854,-0.003293868263718025 C 187.511550496782,4.310641141890088 189.73932617813864,8.509261809866167 193.75350511491854,10.822023679041763" fill="none" id="x2jsru6q-p4" stroke="black" stroke-width="1" /><path d="M 162.50405512298545,-0.0036114155691890915 C 162.519531014538,12.943193614892213 169.23383882072145,25.532715872858308 181.25405512298548,32.472341226347254" fill="none" id="x2jsru6q-p5" stroke="black" stroke-width="1" /><path d="M 162.50460513105236,43.30392896287467 C 162.50522000322675,47.62286397302847 164.74030238047806,51.811587736527414 168.75,54.12658773652741" fill="none" id="qoulo1ds-p1" stroke="black" stroke-width="1" /><path d="M 149.97660439085982,71.24306276214868 C 151.86434739224524,72.93339597211659 153.9636929340091,74.45722283113838 156.25,75.77722283113837" fill="none" id="qoulo1ds-p2" stroke="black" stroke-width="1" /><path d="M 143.7546051310524,75.77988160479113 C 147.49522000322676,73.62094659463733 152.24030238047806,73.46222283113838 156.25,75.77722283113837" fill="none" id="qoulo1ds-p3" stroke="black" stroke-width="1" /><path d="M 131.24649488508143,54.12456405748565 C 134.97844950321797,51.96062904733184 137.50067382186134,47.932008379355764 137.49649488508143,43.29924651018017" fill="none" id="qoulo1ds-p4" stroke="black" stroke-width="1" /><path d="M 143.74594487701455,75.77488160479112 C 154.950468985462,69.28807657432972 162.49616117927854,57.17855431636363 162.49594487701452,43.298928962874676" fill="none" id="qoulo1ds-p5" stroke="black" stroke-width="1" /><path d="M 156.24539486894764,10.82265877365274 C 152.50477999677324,12.981593783806542 147.75969761952194,13.140317547305482 143.75,10.825317547305485" fill="none" id="qp3v8iao-p1" stroke="black" stroke-width="1" /><path d="M 138.31339560914017,35.64179257292675 C 135.90565260775477,34.85212578289465 133.5363070659909,33.79595264191645 131.25,32.47595264191645" fill="none" id="qp3v8iao-p2" stroke="black" stroke-width="1" /><path d="M 137.49539486894764,43.29861141556919 C 137.49477999677325,38.97967640541539 135.25969761952194,34.79095264191645 131.25,32.47595264191645" fill="none" id="qp3v8iao-p3" stroke="black" stroke-width="1" /><path d="M 162.50350511491857,43.3032938682637 C 162.51155049678204,38.9893588581099 164.73932617813867,34.790738190133816 168.75350511491857,32.47797632095822" fill="none" id="qp3v8iao-p4" stroke="black" stroke-width="1" /><path d="M 137.50405512298548,43.30361141556919 C 137.519531014538,30.35680638510779 144.23383882072147,17.767284127141693 156.25405512298548,10.82765877365274" fill="none" id="qp3v8iao-p5" stroke="black" stroke-width="1" /><path d="M 56.25,97.42254037844387 C 59.99,95.26254037844386 62.5,91.23254037844386 62.5,86.60254037844386" fill="none" id="mnytjt42-p1" stroke="black" stroke-width="1" /><path d="M 86.71000000000001,94.30254037844387 C 87.23,91.82254037844386 87.5,89.24254037844386 87.5,86.60254037844386" fill="none" id="mnytjt42-p2" stroke="black" stroke-width="1" /><path d="M 93.75,97.42254037844387 C 90.00999999999999,95.26254037844386 87.5,91.23254037844386 87.5,86.60254037844386" fill="none" id="mnytjt42-p3" stroke="black" stroke-width="1" /><path d="M 81.25,119.08254037844387 C 77.50999999999999,116.93254037844386 72.75999999999999,116.76254037844386 68.75,119.08254037844387" fill="none" id="mnytjt42-p4" stroke="black" stroke-width="1" /><path d="M 93.75,97.43254037844386 C 82.53,90.97254037844387 68.27,90.49254037844386 56.25,97.43254037844386" fill="none" id="mnytjt42-p5" stroke="black" stroke-width="1" /><path d="M 137.50460513105236,86.6051991520966 C 137.50522000322675,90.92413416225041 139.74030238047806,95.11285792574935 143.75,97.42785792574935" fill="none" id="5dcedx0b-p1" stroke="black" stroke-width="1" /><path d="M 124.97660439085982,114.5443329513706 C 126.86434739224524,116.23466616133852 128.9636929340091,117.75849302036032 131.25,119.07849302036031" fill="none" id="5dcedx0b-p2" stroke="black" stroke-width="1" /><path d="M 118.75460513105239,119.08115179401307 C 122.49522000322676,116.92221678385926 127.24030238047806,116.76349302036031 131.25,119.07849302036031" fill="none" id="5dcedx0b-p3" stroke="black" stroke-width="1" /><path d="M 106.24649488508143,97.42583424670758 C 109.97844950321797,95.26189923655377 112.50067382186134,91.23327856857769 112.49649488508143,86.60051669940209" fill="none" id="5dcedx0b-p4" stroke="black" stroke-width="1" /><path d="M 118.74594487701454,119.07615179401306 C 129.950468985462,112.58934676355166 137.49616117927854,100.47982450558555 137.49594487701452,86.60019915209661" fill="none" id="5dcedx0b-p5" stroke="black" stroke-width="1" /><path d="M 81.25,140.7238105676658 C 84.99,138.5638105676658 87.5,134.5338105676658 87.5,129.9038105676658" fill="none" id="jpi893g7-p1" stroke="black" stroke-width="1" /><path d="M 111.71000000000001,137.6038105676658 C 112.23,135.1238105676658 112.5,132.5438105676658 112.5,129.9038105676658" fill="none" id="jpi893g7-p2" stroke="black" stroke-width="1" /><path d="M 118.75,140.7238105676658 C 115.00999999999999,138.5638105676658 112.5,134.5338105676658 112.5,129.9038105676658" fill="none" id="jpi893g7-p3" stroke="black" stroke-width="1" /><path d="M 106.25,162.3838105676658 C 102.50999999999999,160.23381056766578 97.75999999999999,160.0638105676658 93.75,162.3838105676658" fill="none" id="jpi893g7-p4" stroke="black" stroke-width="1" /><path d="M 118.75,140.7338105676658 C 107.53,134.2738105676658 93.27,133.7938105676658 81.25,140.7338105676658" fill="none" id="jpi893g7-p5" stroke="black" stroke-width="1" /><path d="M 112.50460513105237,129.89988160479112 C 112.50522000322675,125.58094659463733 114.74030238047804,121.39222283113838 118.75,119.07722283113839" fill="none" id="r17bndkn-p1" stroke="black" stroke-width="1" /><path d="M 99.9766043908598,101.96074780551713 C 101.86434739224521,100.27041459554923 103.96369293400906,98.74658773652742 106.24999999999999,97.42658773652742" fill="none" id="r17bndkn-p2" stroke="black" stroke-width="1" /><path d="M 93.75460513105236,97.42392896287468 C 97.49522000322675,99.58286397302848 102.24030238047803,99.74158773652742 106.24999999999999,97.42658773652742" fill="none" id="r17bndkn-p3" stroke="black" stroke-width="1" /><path d="M 81.24649488508143,119.07924651018017 C 84.97844950321797,121.24318152033398 87.50067382186134,125.27180218831006 87.49649488508143,129.90456405748566" fill="none" id="r17bndkn-p4" stroke="black" stroke-width="1" /><path d="M 93.74594487701451,97.42892896287469 C 104.95046898546198,103.91573399333608 112.49616117927853,116.02525625130218 112.49594487701452,129.90488160479111" fill="none" id="r17bndkn-p5" stroke="black" stroke-width="1" /><path d="M 106.24539486894763,10.82265877365274 C 102.50477999677324,12.981593783806542 97.75969761952196,13.140317547305482 93.75,10.825317547305485" fill="none" id="tiyczt5v-p1" stroke="black" stroke-width="1" /><path d="M 88.31339560914019,35.64179257292675 C 85.90565260775477,34.85212578289465 83.53630706599093,33.79595264191645 81.25,32.47595264191645" fill="none" id="tiyczt5v-p2" stroke="black" stroke-width="1" /><path d="M 87.49539486894764,43.29861141556919 C 87.49477999677325,38.97967640541539 85.25969761952196,34.79095264191645 81.25,32.47595264191645" fill="none" id="tiyczt5v-p3" stroke="black" stroke-width="1" /><path d="M 112.50350511491857,43.3032938682637 C 112.51155049678204,38.9893588581099 114.73932617813867,34.790738190133816 118.75350511491857,32.47797632095822" fill="none" id="tiyczt5v-p4" stroke="black" stroke-width="1" /><path d="M 87.50405512298548,43.30361141556919 C 87.519531014538,30.35680638510779 94.23383882072147,17.767284127141693 106.25405512298548,10.82765877365274" fill="none" id="tiyczt5v-p5" stroke="black" stroke-width="1" /><path d="M 106.25,75.78127018922193 C 109.99,77.94127018922194 112.5,81.97127018922193 112.5,86.60127018922194" fill="none" id="05270wzd-p1" stroke="black" stroke-width="1" /><path d="M 136.71,78.90127018922192 C 137.23000000000002,81.38127018922194 137.5,83.96127018922192 137.5,86.60127018922194" fill="none" id="05270wzd-p2" stroke="black" stroke-width="1" /><path d="M 143.75,75.78127018922193 C 140.01,77.94127018922194 137.5,81.97127018922193 137.5,86.60127018922194" fill="none" id="05270wzd-p3" stroke="black" stroke-width="1" /><path d="M 131.25,54.12127018922193 C 127.50999999999999,56.27127018922193 122.75999999999999,56.44127018922193 118.75,54.12127018922193" fill="none" id="05270wzd-p4" stroke="black" stroke-width="1" /><path d="M 143.75,75.77127018922192 C 132.53,82.23127018922193 118.27,82.71127018922192 106.25,75.77127018922192" fill="none" id="05270wzd-p5" stroke="black" stroke-width="1" /><path d="M 81.24539486894763,54.12392896287467 C 77.50477999677324,56.28286397302847 72.75969761952196,56.44158773652741 68.75,54.12658773652741" fill="none" id="px7ii0xr-p1" stroke="black" stroke-width="1" /><path d="M 63.31339560914019,78.94306276214868 C 60.905652607754774,78.15339597211658 58.536307065990925,77.09722283113838 56.25000000000001,75.77722283113837" fill="none" id="px7ii0xr-p2" stroke="black" stroke-width="1" /><path d="M 62.495394868947635,86.59988160479112 C 62.49477999677325,82.28094659463733 60.25969761952196,78.09222283113837 56.25000000000001,75.77722283113837" fill="none" id="px7ii0xr-p3" stroke="black" stroke-width="1" /><path d="M 87.50350511491857,86.60456405748563 C 87.51155049678204,82.29062904733183 89.73932617813867,78.09200837935575 93.75350511491857,75.77924651018014" fill="none" id="px7ii0xr-p4" stroke="black" stroke-width="1" /><path d="M 62.50405512298548,86.60488160479113 C 62.519531014538,73.65807657432973 69.23383882072147,61.068554316363624 81.25405512298548,54.12892896287467" fill="none" id="px7ii0xr-p5" stroke="black" stroke-width="1" /><path d="M 81.25,54.12127018922193 C 84.99,51.961270189221935 87.5,47.931270189221934 87.5,43.30127018922193" fill="none" id="e4tvwmty-p1" stroke="black" stroke-width="1" /><path d="M 111.71000000000001,51.001270189221934 C 112.23,48.52127018922193 112.5,45.94127018922193 112.5,43.30127018922193" fill="none" id="e4tvwmty-p2" stroke="black" stroke-width="1" /><path d="M 118.75,54.12127018922193 C 115.00999999999999,51.961270189221935 112.5,47.931270189221934 112.5,43.30127018922193" fill="none" id="e4tvwmty-p3" stroke="black" stroke-width="1" /><path d="M 106.25,75.78127018922193 C 102.50999999999999,73.63127018922194 97.75999999999999,73.46127018922192 93.75,75.78127018922193" fill="none" id="e4tvwmty-p4" stroke="black" stroke-width="1" /><path d="M 118.75,54.13127018922193 C 107.53,47.67127018922193 93.27,47.19127018922193 81.25,54.13127018922193" fill="none" id="e4tvwmty-p5" stroke="black" stroke-width="1" /></svg>