<?xml version="1.0" encoding="UTF-8"?>
<svg id="vectors" xmlns="http://www.w3.org/2000/svg" viewBox="0 0 100 86.6">
  <path id="p1" d="M8.5,0c0,3.02-1.63,5.83-4.26,7.35" style="fill: none; stroke: #000; stroke-miterlimit: 10;"/>
  <path id="p2" d="M8.25,14.28C13.34,11.33,16.5,5.86,16.5,0" style="fill: none; stroke: #000; stroke-miterlimit: 10;"/>
  <path id="p6" d="M83.5,0c0,5.86,3.16,11.33,8.25,14.28" style="fill: none; stroke: #000; stroke-miterlimit: 10;"/>
  <path id="p7" d="M95.76,7.35C93.13,5.83,91.5,3.02,91.5,0" style="fill: none; stroke: #000; stroke-miterlimit: 10;"/>
  <path id="p3" d="M33.5,0c0,11.91-6.42,23.03-16.76,29.01" style="fill: none; stroke: #000; stroke-miterlimit: 10;"/>
  <path id="p4" d="M58.5,0c0,6.27-.98,12.4-2.91,18.26-.4,1.21-1.54,2-2.81,1.95-4.01-.17-8.03.03-12.01.58-2.16.3-3.82-1.88-2.92-3.87C40.21,11.67,41.5,5.92,41.5,0" style="fill: none; stroke: #000; stroke-miterlimit: 10;"/>
  <path id="p5" d="M83.26,29.01C72.92,23.03,66.5,11.91,66.5,0" style="fill: none; stroke: #000; stroke-miterlimit: 10;"/>
  <path id="p8" d="M20.75,35.95c18.07-10.41,40.48-10.41,58.5,0" style="fill: none; stroke: #000; stroke-miterlimit: 10;"/>
  <path id="p11" d="M58.25,72.31c-5.08-2.93-11.4-2.93-16.49,0" style="fill: none; stroke: #000; stroke-miterlimit: 10;"/>
  <path id="p12" d="M45.75,79.25c2.63-1.51,5.88-1.52,8.5,0" style="fill: none; stroke: #000; stroke-miterlimit: 10;"/>
  <path id="p9" d="M70.75,50.66c-12.78-7.38-28.68-7.38-41.49,0" style="fill: none; stroke: #000; stroke-miterlimit: 10;"/>
  <path id="p10" d="M33.25,57.6c10.35-5.96,23.18-5.96,33.5,0" style="fill: none; stroke: #000; stroke-miterlimit: 10;"/>
</svg>