<?xml version="1.0" encoding="UTF-8"?>
<svg id="vectors" xmlns="http://www.w3.org/2000/svg" viewBox="0 0 200 173.21">
  <path id="p1" d="M8.5,0c0,3.02-1.63,5.84-4.26,7.36" style="fill: none; stroke: #000; stroke-miterlimit: 10;"/>
  <path id="p2" d="M8.25,14.28C13.34,11.33,16.5,5.86,16.5,0" style="fill: none; stroke: #000; stroke-miterlimit: 10;"/>
  <path id="p3" d="M33.5,0c0,11.91-6.42,23.03-16.76,29.01" style="fill: none; stroke: #000; stroke-miterlimit: 10;"/>
  <path id="p4" d="M20.75,35.93C33.55,28.53,41.5,14.76,41.5,0" style="fill: none; stroke: #000; stroke-miterlimit: 10;"/>
  <path id="p13" d="M195.76,7.36c-2.63-1.52-4.26-4.34-4.26-7.36" style="fill: none; stroke: #000; stroke-miterlimit: 10;"/>
  <path id="p12" d="M183.5,0c0,5.86,3.16,11.33,8.25,14.28" style="fill: none; stroke: #000; stroke-miterlimit: 10;"/>
  <path id="p10" d="M158.5,0c0,14.76,7.95,28.53,20.75,35.93" style="fill: none; stroke: #000; stroke-miterlimit: 10;"/>
  <path id="p11" d="M183.26,29.01C172.92,23.03,166.5,11.91,166.5,0" style="fill: none; stroke: #000; stroke-miterlimit: 10;"/>
  <path id="p5" d="M58.5,0c0,20.81-11.21,40.22-29.26,50.66h0" style="fill: none; stroke: #000; stroke-miterlimit: 10;"/>
  <path id="p6" d="M83.5,0c0,11.26-2.2,22.14-6.52,32.39-.36.86-1.14,1.46-2.06,1.62-4.81.86-9.58,1.97-14.29,3.33-2.39.69-4.38-1.87-3.14-4.02C63.29,23.34,66.5,11.87,66.5,0" style="fill: none; stroke: #000; stroke-miterlimit: 10;"/>
  <path id="p7" d="M108.5,0c0,10.14-1.42,20.15-4.19,29.83-.34,1.19-1.45,1.98-2.69,1.97-3.96-.05-7.92.07-11.87.36-1.96.14-3.41-1.75-2.79-3.62C89.97,19.38,91.5,9.82,91.5,0" style="fill: none; stroke: #000; stroke-miterlimit: 10;"/>
  <path id="p8" d="M133.5,0c0,10.9-1.34,21.71-3.95,32.24-.35,1.42-1.77,2.28-3.2,2.01-3.72-.7-7.45-1.25-11.2-1.65-1.65-.18-2.77-1.79-2.35-3.4C115.25,19.69,116.5,9.9,116.5,0" style="fill: none; stroke: #000; stroke-miterlimit: 10;"/>
  <path id="p9" d="M170.76,50.66s0,0-.01,0h0c-.07-.05-.14-.08-.2-.12C152.62,40.06,141.5,20.72,141.5,0" style="fill: none; stroke: #000; stroke-miterlimit: 10;"/>
  <path id="p14" d="M33.25,57.59c41.06-23.71,92.11-23.75,133.28-.14.08.04.15.09.23.14h0s0,0,0,0" style="fill: none; stroke: #000; stroke-miterlimit: 10;"/>
  <path id="p25" d="M142.43,33.18s.05.09.08.13c1.25,2.16-.77,4.7-3.16,4.01-.03,0-.07-.02-.1-.03-1.4-.4-2.24-1.86-1.89-3.27,0-.03.02-.07.03-.1.6-2.42,3.81-2.89,5.05-.74Z" style="fill: none; stroke: #000; stroke-miterlimit: 10;"/>
  <path id="p23" d="M108.24,158.92c-5.1-2.93-11.42-2.94-16.49,0" style="fill: none; stroke: #000; stroke-miterlimit: 10;"/>
  <path id="p24" d="M95.75,165.84c2.61-1.51,5.87-1.5,8.5.01" style="fill: none; stroke: #000; stroke-miterlimit: 10;"/>
  <path id="p21" d="M120.74,137.27c-12.81-7.38-28.71-7.38-41.49,0" style="fill: none; stroke: #000; stroke-miterlimit: 10;"/>
  <path id="p22" d="M83.25,144.19c10.32-5.96,23.15-5.95,33.5,0" style="fill: none; stroke: #000; stroke-miterlimit: 10;"/>
  <path id="p19" d="M133.24,115.62c-20.53-11.83-46.01-11.83-66.49,0" style="fill: none; stroke: #000; stroke-miterlimit: 10;"/>
  <path id="p20" d="M70.75,122.54c18.02-10.4,40.43-10.4,58.5,0" style="fill: none; stroke: #000; stroke-miterlimit: 10;"/>
  <path id="p17" d="M145.75,93.95c-28.25-16.27-63.31-16.27-91.5.01" style="fill: none; stroke: #000; stroke-miterlimit: 10;"/>
  <path id="p18" d="M58.25,100.89c25.73-14.85,57.73-14.86,83.51,0" style="fill: none; stroke: #000; stroke-miterlimit: 10;"/>
  <path id="p16" d="M45.75,79.24c33.44-19.3,75.01-19.31,108.51-.01" style="fill: none; stroke: #000; stroke-miterlimit: 10;"/>
  <path id="p15" d="M158.25,72.3c-35.96-20.72-80.6-20.71-116.5.02" style="fill: none; stroke: #000; stroke-miterlimit: 10;"/>
</svg>