<?xml version="1.0" encoding="UTF-8"?>
<svg id="vectors" xmlns="http://www.w3.org/2000/svg" viewBox="0 0 200 173.21">
  <path d="M9,0c0,3.19-1.73,6.18-4.51,7.79" style="fill: none; stroke: #000; stroke-miterlimit: 10;"/>
  <path d="M8,13.85C12.93,10.99,16,5.68,16,0" style="fill: none; stroke: #000; stroke-miterlimit: 10;"/>
  <path d="M34,0c0,12.09-6.52,23.37-17.01,29.44" style="fill: none; stroke: #000; stroke-miterlimit: 10;"/>
  <path d="M20.5,35.5C33.15,28.19,41,14.58,41,0" style="fill: none; stroke: #000; stroke-miterlimit: 10;"/>
  <path d="M184,0c0,5.68,3.07,10.99,8,13.85" style="fill: none; stroke: #000; stroke-miterlimit: 10;"/>
  <path d="M195.51,7.79c-2.78-1.61-4.51-4.59-4.51-7.79" style="fill: none; stroke: #000; stroke-miterlimit: 10;"/>
  <path d="M159,0c0,14.58,7.85,28.19,20.5,35.5" style="fill: none; stroke: #000; stroke-miterlimit: 10;"/>
  <path d="M183.01,29.44C172.52,23.37,166,12.09,166,0" style="fill: none; stroke: #000; stroke-miterlimit: 10;"/>
  <path d="M167,57.15c-41.33-23.71-92.78-23.79-134.01,0" style="fill: none; stroke: #000; stroke-miterlimit: 10;"/>
  <path d="M59,0c0,20.98-11.31,40.56-29.51,51.09" style="fill: none; stroke: #000; stroke-miterlimit: 10;"/>
  <path d="M84,0c0,11.92-2.45,23.42-7.27,34.2-8.42,1.4-16.73,3.57-24.83,6.5C60.87,29.24,66,14.94,66,0" style="fill: none; stroke: #000; stroke-miterlimit: 10;"/>
  <path d="M109,0c0,11.02-1.67,21.88-4.92,32.34-6.44-.19-12.89.08-19.31.77C88.9,22.58,91,11.47,91,0" style="fill: none; stroke: #000; stroke-miterlimit: 10;"/>
  <path d="M134,0c0,11.97-1.61,23.84-4.75,35.34-5.94-1.25-11.93-2.12-17.96-2.6C114.41,22.13,116,11.14,116,0" style="fill: none; stroke: #000; stroke-miterlimit: 10;"/>
  <path d="M170.5,51.08c-18.07-10.56-29.28-30.04-29.28-50.94" style="fill: none; stroke: #000; stroke-miterlimit: 10;"/>
  <path d="M138.82,24.66c2.33,5.75,5.45,11.15,9.28,16.04-3.96-1.43-7.98-2.69-12.03-3.76,1.1-4.05,2.02-8.15,2.75-12.28Z" style="fill: none; stroke: #000; stroke-miterlimit: 10;"/>
  <path d="M95.5,165.41c2.77-1.6,6.21-1.59,9,0" style="fill: none; stroke: #000; stroke-miterlimit: 10;"/>
  <path d="M107.99,159.36c-4.94-2.85-11.07-2.85-15.99,0" style="fill: none; stroke: #000; stroke-miterlimit: 10;"/>
  <path d="M83,143.76c10.47-6.05,23.5-6.04,34,0" style="fill: none; stroke: #000; stroke-miterlimit: 10;"/>
  <path d="M120.49,137.7c-12.66-7.29-28.37-7.29-40.99,0" style="fill: none; stroke: #000; stroke-miterlimit: 10;"/>
  <path d="M70.5,122.11c18.17-10.49,40.78-10.49,59,0" style="fill: none; stroke: #000; stroke-miterlimit: 10;"/>
  <path d="M132.99,116.05c-20.38-11.74-45.66-11.74-65.99,0" style="fill: none; stroke: #000; stroke-miterlimit: 10;"/>
  <path d="M58,100.46c25.89-14.95,58.08-14.95,84.01,0" style="fill: none; stroke: #000; stroke-miterlimit: 10;"/>
  <path d="M145.5,94.38c-28.09-16.18-62.96-16.18-91,.01" style="fill: none; stroke: #000; stroke-miterlimit: 10;"/>
  <path d="M45.5,78.81c33.59-19.39,75.36-19.4,109.01-.01" style="fill: none; stroke: #000; stroke-miterlimit: 10;"/>
  <path d="M158,72.73c-35.81-20.63-80.26-20.62-116,.02" style="fill: none; stroke: #000; stroke-miterlimit: 10;"/>
</svg>