<?xml version="1.0" encoding="UTF-8"?>
<svg id="vectors" xmlns="http://www.w3.org/2000/svg" viewBox="0 0 100 86.6">
  <path d="M9,0c0,3.19-1.73,6.18-4.51,7.79" style="fill: none; stroke: #000; stroke-miterlimit: 10;"/>
  <path d="M8,13.85C12.93,10.99,16,5.68,16,0" style="fill: none; stroke: #000; stroke-miterlimit: 10;"/>
  <path d="M95.51,7.79C92.73,6.18,91,3.19,91,0" style="fill: none; stroke: #000; stroke-miterlimit: 10;"/>
  <path d="M84,0c0,5.68,3.07,10.99,8,13.85" style="fill: none; stroke: #000; stroke-miterlimit: 10;"/>
  <path d="M59,0c0,7.2-1.29,14.2-3.8,20.85-7.02-.55-14.12.02-21,1.71C38.55,15.96,41,8.13,41,0M83.01,29.44C72.52,23.37,66,12.09,66,0M20.5,35.52c18.22-10.5,40.83-10.5,59,0M34,0c0,12.09-6.52,23.37-17.01,29.44M63.39,18.38c.72,1.44,1.53,2.83,2.41,4.17-1.16-.28-2.33-.54-3.5-.76.4-1.13.76-2.27,1.09-3.41Z" style="fill: none; stroke: #000; stroke-miterlimit: 10;"/>
  <path d="M58,72.75c-4.92-2.84-11.05-2.84-15.99,0" style="fill: none; stroke: #000; stroke-miterlimit: 10;"/>
  <path d="M45.5,78.82c2.78-1.6,6.23-1.61,9,0" style="fill: none; stroke: #000; stroke-miterlimit: 10;"/>
  <path d="M70.5,51.1c-12.63-7.29-28.34-7.29-40.99,0" style="fill: none; stroke: #000; stroke-miterlimit: 10;"/>
  <path d="M33,57.16c10.5-6.05,23.53-6.05,34,0" style="fill: none; stroke: #000; stroke-miterlimit: 10;"/>
</svg>