<?xml version="1.0" encoding="UTF-8"?>
<svg id="vectors" xmlns="http://www.w3.org/2000/svg" viewBox="0 0 200 173.21">
  <path id="p1" d="M6.25,10.82C9.98,8.66,12.5,4.63,12.5,0" style="fill: none; stroke: #000; stroke-miterlimit: 10;"/>
  <path id="p2" d="M18.75,32.47C29.95,25.99,37.5,13.88,37.5,0" style="fill: none; stroke: #000; stroke-miterlimit: 10;"/>
  <path id="p3" d="M31.25,54.12C49.92,43.31,62.5,23.13,62.5,0" style="fill: none; stroke: #000; stroke-miterlimit: 10;"/>
  <path id="p5" d="M106.65,35.86C110.43,24.6,112.5,12.54,112.5,0" style="fill: none; stroke: #000; stroke-miterlimit: 10;"/>
  <path id="p6" d="M131.75,39.43C135.48,26.93,137.5,13.7,137.5,0" style="fill: none; stroke: #000; stroke-miterlimit: 10;"/>
  <path id="p4" d="M79.19,37.26C84.51,25.95,87.5,13.33,87.5,0" style="fill: none; stroke: #000; stroke-miterlimit: 10;"/>
  <path id="p7" d="M193.75,10.82C190.02,8.66,187.5,4.63,187.5,0" style="fill: none; stroke: #000; stroke-miterlimit: 10;"/>
  <path id="p8" d="M181.25,32.47C170.05,25.99,162.5,13.88,162.5,0" style="fill: none; stroke: #000; stroke-miterlimit: 10;"/>
  <path id="p9" d="M168.75,54.12C150.08,43.31,137.5,23.13,137.5,0" style="fill: none; stroke: #000; stroke-miterlimit: 10;"/>
  <path id="p10" d="M106.24,162.39c-3.74-2.15-8.49-2.32-12.5,0" style="fill: none; stroke: #000; stroke-miterlimit: 10;"/>
  <path id="p11" d="M118.74,140.73c-11.22-6.46-25.48-6.94-37.5,0" style="fill: none; stroke: #000; stroke-miterlimit: 10;"/>
  <path id="p12" d="M131.24,119.09c-18.7-10.77-42.46-11.57-62.5,0" style="fill: none; stroke: #000; stroke-miterlimit: 10;"/>
  <path id="p13" d="M143.75,97.42c-26.18-15.08-59.46-16.18-87.51.01" style="fill: none; stroke: #000; stroke-miterlimit: 10;"/>
  <path id="p14" d="M156.25,75.76c-33.66-19.39-76.45-20.81-112.51.01" style="fill: none; stroke: #000; stroke-miterlimit: 10;"/>
  <path id="p15" d="M168.75,54.11c-41.14-23.7-93.44-25.43-137.51.02" style="fill: none; stroke: #000; stroke-miterlimit: 10;"/>
</svg>