<?xml version="1.0" encoding="UTF-8"?>
<svg id="Ebene_1" data-name="Ebene 1" xmlns="http://www.w3.org/2000/svg" viewBox="0 0 400 346.49">
  <path d="M100.78,50.06c7.5-15.08,11.72-32.07,11.72-50.06" style="fill: none; stroke: #000; stroke-miterlimit: 10;"/>
  <path d="M131.13,41.49c4.14-13.09,6.37-27.03,6.37-41.49" style="fill: none; stroke: #000; stroke-miterlimit: 10;"/>
  <path d="M158.35,36.66c2.72-11.78,4.15-24.05,4.15-36.66" style="fill: none; stroke: #000; stroke-miterlimit: 10;"/>
  <path d="M184.37,34.28c2.05-11.11,3.13-22.57,3.13-34.28" style="fill: none; stroke: #000; stroke-miterlimit: 10;"/>
  <path d="M209.78,34.06c1.79-11.09,2.72-22.47,2.72-34.06" style="fill: none; stroke: #000; stroke-miterlimit: 10;"/>
  <path d="M234.81,35.88c1.77-11.7,2.69-23.68,2.69-35.88" style="fill: none; stroke: #000; stroke-miterlimit: 10;"/>
  <path d="M259.52,39.67c1.96-12.94,2.98-26.19,2.98-39.67" style="fill: none; stroke: #000; stroke-miterlimit: 10;"/>
  <path d="M283.93,45.44c2.35-14.8,3.57-29.98,3.57-45.44" style="fill: none; stroke: #000; stroke-miterlimit: 10;"/>
  <path d="M6.24,10.82c3.74-2.16,6.26-6.19,6.26-10.82" style="fill: none; stroke: #000; stroke-miterlimit: 10;"/>
  <path d="M18.74,32.47C29.95,25.99,37.5,13.88,37.5,0" style="fill: none; stroke: #000; stroke-miterlimit: 10;"/>
  <path d="M31.24,54.12C49.92,43.32,62.5,23.13,62.5,0" style="fill: none; stroke: #000; stroke-miterlimit: 10;"/>
  <path d="M43.75,75.79C69.9,60.66,87.5,32.39,87.5,0" style="fill: none; stroke: #000; stroke-miterlimit: 10;"/>
  <path d="M307.99,53.2c2.97-17.29,4.51-35.06,4.51-53.2" style="fill: none; stroke: #000; stroke-miterlimit: 10;"/>
  <path d="M256.27,249.01c-33.66-19.4-76.46-20.81-112.52,0" style="fill: none; stroke: #000; stroke-miterlimit: 10;"/>
  <path d="M268.77,227.36c-41.14-23.71-93.45-25.44-137.52,0" style="fill: none; stroke: #000; stroke-miterlimit: 10;"/>
  <path d="M281.27,205.71c-48.62-28.02-110.44-30.06-162.52.01" style="fill: none; stroke: #000; stroke-miterlimit: 10;"/>
  <path d="M293.78,184.06c-56.1-32.33-127.43-34.69-187.53.01" style="fill: none; stroke: #000; stroke-miterlimit: 10;"/>
  <path d="M306.28,162.4c-63.58-36.64-144.42-39.31-212.53.02" style="fill: none; stroke: #000; stroke-miterlimit: 10;"/>
  <path d="M318.79,140.75c-71.06-40.95-161.41-43.94-237.54.02" style="fill: none; stroke: #000; stroke-miterlimit: 10;"/>
  <path d="M331.29,119.1c-78.54-45.26-178.4-48.56-262.54.02" style="fill: none; stroke: #000; stroke-miterlimit: 10;"/>
  <path d="M343.79,97.45c-86.02-49.57-195.39-53.19-287.54.02" style="fill: none; stroke: #000; stroke-miterlimit: 10;"/>
  <path d="M206.25,335.63c-3.74-2.15-8.49-2.32-12.5,0" style="fill: none; stroke: #000; stroke-miterlimit: 10;"/>
  <path d="M218.75,313.98c-11.22-6.46-25.48-6.95-37.5,0" style="fill: none; stroke: #000; stroke-miterlimit: 10;"/>
  <path d="M231.25,292.33c-18.7-10.77-42.47-11.58-62.5,0" style="fill: none; stroke: #000; stroke-miterlimit: 10;"/>
  <path d="M243.76,270.67c-26.18-15.09-59.47-16.19-87.51,0" style="fill: none; stroke: #000; stroke-miterlimit: 10;"/>
  <path d="M356.3,75.79c-93.5-53.88-212.38-57.81-312.55.02" style="fill: none; stroke: #000; stroke-miterlimit: 10;"/>
  <path d="M393.76,10.82c-3.74-2.16-6.26-6.19-6.26-10.82" style="fill: none; stroke: #000; stroke-miterlimit: 10;"/>
  <path d="M381.26,32.47c-11.21-6.48-18.76-18.59-18.76-32.47" style="fill: none; stroke: #000; stroke-miterlimit: 10;"/>
  <path d="M368.76,54.12c-18.68-10.81-31.26-30.99-31.26-54.12" style="fill: none; stroke: #000; stroke-miterlimit: 10;"/>
  <path d="M356.25,75.79c-26.15-15.13-43.75-43.4-43.75-75.79" style="fill: none; stroke: #000; stroke-miterlimit: 10;"/>
</svg>