<?xml version="1.0" encoding="UTF-8"?>
<svg id="Ebene_1" data-name="Ebene 1" xmlns="http://www.w3.org/2000/svg" viewBox="0 0 100 86.62">
  <path d="M6.24,10.82C9.98,8.66,12.5,4.63,12.5,0" style="fill: none; stroke: #000; stroke-miterlimit: 10;"/>
  <path d="M18.74,32.47C29.95,25.99,37.5,13.88,37.5,0" style="fill: none; stroke: #000; stroke-miterlimit: 10;"/>
  <path d="M57.48,24.58C60.71,17.04,62.5,8.73,62.5,0" style="fill: none; stroke: #000; stroke-miterlimit: 10;"/>
  <path d="M93.76,10.82C90.02,8.66,87.5,4.63,87.5,0" style="fill: none; stroke: #000; stroke-miterlimit: 10;"/>
  <path d="M81.26,32.47C70.05,25.99,62.5,13.88,62.5,0" style="fill: none; stroke: #000; stroke-miterlimit: 10;"/>
  <path d="M56.25,75.8c-3.74-2.15-8.49-2.32-12.5,0" style="fill: none; stroke: #000; stroke-miterlimit: 10;"/>
  <path d="M68.75,54.15c-11.22-6.46-25.48-6.95-37.5,0" style="fill: none; stroke: #000; stroke-miterlimit: 10;"/>
  <path d="M81.25,32.5c-18.7-10.77-42.47-11.58-62.5,0" style="fill: none; stroke: #000; stroke-miterlimit: 10;"/>
</svg>