<?xml version="1.0" encoding="UTF-8"?>
<svg id="Ebene_1" data-name="Ebene 1" xmlns="http://www.w3.org/2000/svg" viewBox="0 0 200 173.24">
  <path d="M71.48,77.38c-7.58,2.24-14.78,5.36-21.48,9.24" style="fill: none; stroke: #000; stroke-miterlimit: 10; stroke-width: 3px;"/>
  <path d="M175,43.31c-.11-.07-.22-.13-.34-.2-8.75-5.03-18.06-9.21-27.81-12.41-13.92-4.57-28.74-7.16-44.12-7.43" style="fill: none; stroke: #000; stroke-miterlimit: 10; stroke-width: 3px;"/>
  <path d="M53.15,30.7c-9.75,3.2-19.06,7.38-27.81,12.41-.12.07-.23.13-.34.2" style="fill: none; stroke: #000; stroke-miterlimit: 10; stroke-width: 3px;"/>
  <path d="M50,0c0,10.52,1.08,20.79,3.15,30.7,3.09,14.91,8.41,29,15.58,41.93.88,1.6,1.8,3.19,2.75,4.75,7.75,12.86,17.39,24.46,28.52,34.43,7.52,6.73,15.72,12.71,24.49,17.83.17.09.34.19.51.29" style="fill: none; stroke: #000; stroke-miterlimit: 10; stroke-width: 3px;"/>
  <path d="M150,86.62c-6.8-3.93-13.08-8.63-18.73-13.99-13.87-13.12-23.97-30.17-28.54-49.36-1.79-7.47-2.73-15.26-2.73-23.27" style="fill: none; stroke: #000; stroke-miterlimit: 10; stroke-width: 3px;"/>
  <path d="M75,129.93c.17-.1.34-.2.51-.29,7.23-4.08,15.59-6.4,24.49-6.4s17.26,2.32,24.49,6.4c.17.09.34.19.51.29" style="fill: none; stroke: #000; stroke-miterlimit: 10; stroke-width: 3px;"/>
  <path d="M175,43.31c-.11-.07-.22-.13-.34-.2C159.9,34.42,150,18.36,150,0" style="fill: none; stroke: #000; stroke-miterlimit: 10; stroke-width: 3px;"/>
  <path d="M50,0c0,18.36-9.9,34.42-24.66,43.11-.12.07-.23.13-.34.2" style="fill: none; stroke: #000; stroke-miterlimit: 10; stroke-width: 3px;"/>
</svg>