<?xml version="1.0" encoding="UTF-8"?>
<svg id="Ebene_1" data-name="Ebene 1" xmlns="http://www.w3.org/2000/svg" viewBox="0 0 200.03 173.23">
  <path d="M106.68,35.87c3.79-11.27,5.84-23.33,5.84-35.87" style="fill: none; stroke: #000; stroke-miterlimit: 10;"/>
  <path d="M131.78,39.42c3.73-12.49,5.73-25.72,5.73-39.42" style="fill: none; stroke: #000; stroke-miterlimit: 10;"/>
  <path d="M6.26,10.82c3.74-2.16,6.26-6.19,6.26-10.82" style="fill: none; stroke: #000; stroke-miterlimit: 10;"/>
  <path d="M18.76,32.47C29.97,25.99,37.52,13.88,37.52,0" style="fill: none; stroke: #000; stroke-miterlimit: 10;"/>
  <path d="M31.26,54.12C49.94,43.32,62.52,23.13,62.52,0" style="fill: none; stroke: #000; stroke-miterlimit: 10;"/>
  <path d="M79.18,37.32c5.35-11.32,8.34-23.97,8.34-37.32" style="fill: none; stroke: #000; stroke-miterlimit: 10;"/>
  <path d="M193.77,10.82c-3.74-2.16-6.26-6.19-6.26-10.82" style="fill: none; stroke: #000; stroke-miterlimit: 10;"/>
  <path d="M181.27,32.47c-11.21-6.48-18.76-18.59-18.76-32.47" style="fill: none; stroke: #000; stroke-miterlimit: 10;"/>
  <path d="M168.78,54.12c-18.68-10.81-31.26-30.99-31.26-54.12" style="fill: none; stroke: #000; stroke-miterlimit: 10;"/>
  <path d="M43.77,75.8c33.66-19.4,76.46-20.81,112.52,0" style="fill: none; stroke: #000; stroke-miterlimit: 10;"/>
  <path d="M31.26,54.15c41.14-23.71,93.45-25.44,137.52,0" style="fill: none; stroke: #000; stroke-miterlimit: 10;"/>
  <path d="M93.79,162.42c3.74-2.15,8.49-2.32,12.5,0" style="fill: none; stroke: #000; stroke-miterlimit: 10;"/>
  <path d="M81.28,140.76c11.22-6.46,25.48-6.95,37.5,0" style="fill: none; stroke: #000; stroke-miterlimit: 10;"/>
  <path d="M68.78,119.12c18.7-10.77,42.47-11.58,62.5,0" style="fill: none; stroke: #000; stroke-miterlimit: 10;"/>
  <path d="M56.27,97.45c26.18-15.09,59.47-16.19,87.51,0" style="fill: none; stroke: #000; stroke-miterlimit: 10;"/>
</svg>